<svg id="Layer_1" enable-background="new 0 0 512 512" height="512" viewBox="0 0 512 512" width="512" xmlns="http://www.w3.org/2000/svg"><g><path d="m214.596 94.267 27.987 55.975c2.541 5.082 7.735 8.292 13.417 8.292h160.667c5.682 0 10.875-3.21 13.417-8.292l27.987-55.975h38.929c8.284 0 15-6.716 15-15v-64.267c0-8.284-6.716-15-15-15h-482c-8.284 0-15 6.716-15 15v482c0 8.284 6.716 15 15 15h482c8.284 0 15-6.716 15-15v-64.267c0-8.284-6.716-15-15-15h-33.2v-29.609c0-36.133-8.545-72.376-24.753-104.895-3.127-6.177-5.793-11.505-7.38-14.688v-45.741h50.333v65.333c0 8.284 6.716 15 15 15s15-6.716 15-15v-80.333c0-8.284-6.716-15-15-15h-80.333-176.734c-5.199 0-10.027 2.692-12.76 7.114s-2.981 9.944-.657 14.594l28.768 57.535c-1.534 3.054-3.483 6.944-5.64 11.271-16.167 32.435-24.711 68.678-24.711 104.811v29.609h-34.267v-323.467zm192.8 34.266h-142.125l-17.133-34.267h176.392zm-5.729 94.267v34.267h-120.33l-17.133-34.267zm-146.734 165.324c0-31.513 7.456-63.128 21.561-91.428 1.788-3.587 3.435-6.877 4.816-9.629h126.078c1.388 2.769 3.046 6.064 4.851 9.629 14.105 28.299 21.561 59.915 21.561 91.428v29.609h-178.867zm-79.266 59.609h306.333v34.267h-452v-452h452v34.267h-306.333c-8.284 0-15 6.716-15 15v353.467c0 8.284 6.715 14.999 15 14.999z"/><circle cx="95.333" cy="368.467" r="15"/><circle cx="95.333" cy="304.2" r="15"/><circle cx="95.333" cy="432.733" r="15"/><path d="m95.333 64.267c-8.284 0-15 6.716-15 15v160.667c0 8.284 6.716 15 15 15s15-6.716 15-15v-160.667c0-8.285-6.715-15-15-15z"/></g></svg>