<svg id="Capa_1" enable-background="new 0 0 512 512" height="512" viewBox="0 0 512 512" width="512" xmlns="http://www.w3.org/2000/svg"><g><path d="m133.242 257.645c-31.386 4.154-62.354 20.125-87.199 44.97-24.846 24.845-40.816 55.813-44.97 87.199-4.351 32.871 4.621 62.341 25.261 82.981 17.235 17.235 40.627 26.334 67.015 26.334 5.213 0 10.544-.355 15.966-1.073 31.386-4.154 62.354-20.125 87.199-44.97 24.846-24.845 40.816-55.813 44.97-87.199 4.351-32.871-4.62-62.341-25.261-82.981-20.639-20.64-50.109-29.614-82.981-25.261zm-102.355 136.115c3.291-24.867 16.226-49.684 36.421-69.88 20.196-20.196 45.013-33.13 69.88-36.421 4.05-.536 8.011-.801 11.869-.801 16.566 0 31.177 4.906 42.295 14.237-5.774 3.259-11.22 4.61-17.453 6.143-11.865 2.916-26.632 6.546-43.651 23.565-17.021 17.021-20.652 31.789-23.569 43.655-2.539 10.327-4.544 18.483-15.629 29.568s-19.242 13.091-29.569 15.63c-7.903 1.943-17.094 4.208-27.378 10.528-3.825-10.705-4.966-23.005-3.216-36.224zm180.783-31.819c-3.291 24.867-16.226 49.684-36.421 69.88s-45.013 33.13-69.879 36.421c-21.441 2.839-40.453-1.937-54.16-13.44 5.774-3.258 11.219-4.61 17.452-6.143 11.866-2.917 26.634-6.548 43.655-23.569 17.02-17.02 20.651-31.788 23.568-43.654 2.539-10.327 4.544-18.484 15.63-29.569 11.083-11.083 19.239-13.088 29.564-15.626 7.901-1.942 17.092-4.206 27.375-10.525 3.824 10.706 4.965 23.006 3.216 36.225z"/><path d="m278.999 255.428c5.213 0 10.544-.355 15.966-1.073 31.386-4.154 62.354-20.125 87.199-44.97 24.846-24.845 40.816-55.813 44.97-87.199 4.351-32.871-4.621-62.341-25.261-82.981s-50.111-29.61-82.981-25.261c-31.386 4.154-62.354 20.125-87.199 44.971-24.846 24.845-40.816 55.813-44.97 87.199-4.351 32.871 4.62 62.341 25.261 82.981 17.235 17.234 40.627 26.333 67.015 26.333zm118.321-137.188c-3.291 24.867-16.226 49.684-36.421 69.88-20.196 20.195-45.013 33.13-69.879 36.421-21.444 2.839-40.453-1.938-54.16-13.439 5.773-3.258 11.219-4.61 17.453-6.143 11.866-2.917 26.633-6.548 43.654-23.569 17.02-17.02 20.651-31.788 23.568-43.654 2.539-10.327 4.544-18.484 15.629-29.569 11.083-11.083 19.239-13.088 29.564-15.626 7.902-1.942 17.092-4.206 27.375-10.524 3.825 10.704 4.966 23.004 3.217 36.223zm-180.783 31.819c3.292-24.867 16.226-49.684 36.421-69.88 20.196-20.196 45.013-33.13 69.879-36.422 4.05-.536 8.011-.801 11.87-.801 16.566 0 31.177 4.906 42.296 14.237-5.774 3.259-11.219 4.61-17.453 6.143-11.866 2.916-26.633 6.547-43.652 23.565-17.02 17.02-20.651 31.788-23.568 43.654-2.539 10.327-4.544 18.484-15.629 29.569s-19.242 13.091-29.569 15.63c-7.903 1.943-17.094 4.208-27.378 10.528-3.826-10.704-4.966-23.004-3.217-36.223z"/><path d="m485.666 282.906c-20.639-20.64-50.103-29.614-82.981-25.261-31.385 4.154-62.354 20.125-87.198 44.97-24.846 24.845-40.817 55.813-44.971 87.199-4.351 32.871 4.62 62.341 25.261 82.981 17.235 17.235 40.627 26.334 67.015 26.334 5.213 0 10.544-.355 15.966-1.073 31.386-4.154 62.354-20.125 87.199-44.97 24.846-24.845 40.817-55.813 44.971-87.199 4.349-32.871-4.621-62.341-25.262-82.981zm-185.336 110.854c3.292-24.867 16.227-49.684 36.422-69.88 20.196-20.196 45.013-33.13 69.879-36.421 4.05-.536 8.011-.801 11.87-.801 16.566 0 31.176 4.906 42.295 14.237-5.774 3.259-11.219 4.61-17.453 6.143-11.866 2.916-26.633 6.547-43.652 23.565-17.02 17.02-20.651 31.788-23.568 43.654-2.538 10.327-4.544 18.484-15.629 29.569s-19.242 13.091-29.568 15.63c-7.903 1.943-17.094 4.208-27.379 10.528-3.826-10.705-4.967-23.005-3.217-36.224zm180.782-31.819c-3.291 24.867-16.226 49.684-36.421 69.879-20.196 20.196-45.013 33.13-69.879 36.421-21.44 2.839-40.453-1.937-54.16-13.439 5.774-3.258 11.219-4.61 17.453-6.143 11.866-2.917 26.634-6.548 43.654-23.569 17.021-17.02 20.652-31.788 23.569-43.654 2.538-10.327 4.544-18.483 15.628-29.568 11.083-11.083 19.239-13.088 29.564-15.626 7.902-1.942 17.092-4.206 27.375-10.524 3.826 10.704 4.967 23.005 3.217 36.223z"/></g></svg>