<svg xmlns="http://www.w3.org/2000/svg" xmlns:xlink="http://www.w3.org/1999/xlink" width="24" height="24" preserveAspectRatio="xMidYMid meet" viewBox="0 0 24 24" style="-ms-transform: rotate(360deg); -webkit-transform: rotate(360deg); transform: rotate(360deg);"><path d="M5 5h13a3 3 0 0 1 3 3v9a3 3 0 0 1-3 3H5a3 3 0 0 1-3-3V8a3 3 0 0 1 3-3zm0 1c-.488 0-.936.175-1.283.466L11.5 11.52l7.783-5.054A1.992 1.992 0 0 0 18 6H5zm6.5 6.712L3.134 7.28A1.995 1.995 0 0 0 3 8v9a2 2 0 0 0 2 2h13a2 2 0 0 0 2-2V8c0-.254-.047-.497-.134-.72L11.5 12.711z" fill="#626262"/><rect x="0" y="0" width="24" height="24" fill="rgba(0, 0, 0, 0)" /></svg>